<svg width="87" height="25" viewBox="0 0 87 25" fill="none" xmlns="http://www.w3.org/2000/svg">
<path d="M0.988 20V0.259999H5.328V16.332H14.456V20H0.988ZM23.1461 20.308C21.6714 20.308 20.3834 20.0187 19.2821 19.44C18.1994 18.8427 17.3594 18.012 16.7621 16.948C16.1647 15.8653 15.8661 14.5867 15.8661 13.112C15.8661 11.656 16.1647 10.396 16.7621 9.332C17.3594 8.24933 18.1994 7.41867 19.2821 6.84C20.3834 6.26133 21.6714 5.972 23.1461 5.972C24.6207 5.972 25.8994 6.26133 26.9821 6.84C28.0834 7.41867 28.9327 8.24933 29.5301 9.332C30.1461 10.396 30.4541 11.656 30.4541 13.112C30.4541 14.5867 30.1461 15.8653 29.5301 16.948C28.9327 18.012 28.0834 18.8427 26.9821 19.44C25.8994 20.0187 24.6207 20.308 23.1461 20.308ZM23.1461 17.144C24.0421 17.144 24.7701 16.8173 25.3301 16.164C25.9087 15.5107 26.1981 14.4933 26.1981 13.112C26.1981 11.7493 25.9087 10.7507 25.3301 10.116C24.7701 9.46267 24.0421 9.136 23.1461 9.136C22.2501 9.136 21.5221 9.46267 20.9621 10.116C20.4021 10.7507 20.1221 11.7493 20.1221 13.112C20.1221 14.4933 20.4021 15.5107 20.9621 16.164C21.5221 16.8173 22.2501 17.144 23.1461 17.144ZM39.7183 20.308C38.225 20.308 36.9183 20.0187 35.7983 19.44C34.697 18.8427 33.8477 18.0027 33.2503 16.92C32.653 15.8373 32.3543 14.5587 32.3543 13.084C32.3543 11.6093 32.653 10.34 33.2503 9.276C33.8477 8.212 34.697 7.4 35.7983 6.84C36.9183 6.26133 38.225 5.972 39.7183 5.972C40.5957 5.972 41.4823 6.10267 42.3783 6.364C43.2743 6.62533 44.0023 6.99867 44.5623 7.484L43.3863 10.396C42.9197 10.0227 42.397 9.73333 41.8183 9.528C41.2397 9.304 40.6797 9.192 40.1383 9.192C39.037 9.192 38.1783 9.53733 37.5623 10.228C36.965 10.9 36.6663 11.8613 36.6663 13.112C36.6663 14.344 36.965 15.3147 37.5623 16.024C38.1783 16.7147 39.037 17.06 40.1383 17.06C40.661 17.06 41.2117 16.9573 41.7903 16.752C42.3877 16.5467 42.9197 16.248 43.3863 15.856L44.5623 18.768C44.0023 19.2533 43.2743 19.636 42.3783 19.916C41.4823 20.1773 40.5957 20.308 39.7183 20.308ZM46.3974 20V0.259999H50.6254V11.936H50.6814L55.7494 6.252H60.7614L54.9374 12.832L61.0414 20H55.9454L50.6814 14.064H50.6254V20H46.3974ZM68.932 20.308C67.308 20.308 65.908 20.0187 64.732 19.44C63.5746 18.8427 62.6786 18.012 62.044 16.948C61.428 15.8653 61.12 14.596 61.12 13.14C61.12 11.7213 61.4186 10.48 62.016 9.416C62.632 8.33333 63.4626 7.49333 64.508 6.896C65.572 6.28 66.7946 5.972 68.176 5.972C70.1733 5.972 71.76 6.60667 72.936 7.876C74.112 9.12667 74.7 10.8253 74.7 12.972V14.036H65.152C65.3013 15.1187 65.6933 15.912 66.328 16.416C66.9813 16.9013 67.8773 17.144 69.016 17.144C69.7626 17.144 70.5186 17.032 71.284 16.808C72.0493 16.584 72.74 16.2387 73.356 15.772L74.476 18.6C73.7853 19.1227 72.936 19.5427 71.928 19.86C70.9386 20.1587 69.94 20.308 68.932 20.308ZM68.344 8.772C67.448 8.772 66.72 9.04267 66.16 9.584C65.6186 10.1253 65.2826 10.8813 65.152 11.852H71.2C71.088 9.79867 70.136 8.772 68.344 8.772ZM77.1592 20V6.252H81.3032V8.632C81.9565 7.02667 83.3565 6.14 85.5032 5.972L86.7352 5.888L86.9872 9.444L84.6072 9.696C82.5165 9.90133 81.4712 10.9653 81.4712 12.888V20H77.1592Z" fill="white"/>
<line x1="1" y1="24.5" x2="46" y2="24.5" stroke="url(#paint0_linear_1_2)"/>
<defs>
<linearGradient id="paint0_linear_1_2" x1="13.8571" y1="24.5" x2="28.9798" y2="28.8208" gradientUnits="userSpaceOnUse">
<stop stop-color="#EDF5FD"/>
<stop offset="1" stop-opacity="0"/>
</linearGradient>
</defs>
</svg>
